<svg xmlns="http://www.w3.org/2000/svg" width="45.229" height="40.969" viewBox="0 0 45.229 40.969"><g transform="translate(-599.618 -1219.259)"><g transform="translate(599.618 1219.259)"><path d="M1757.856,82.23a7.169,7.169,0,0,1-2.544-.427c-4.754-1.789-6.16-8.064-7.648-14.708a68.483,68.483,0,0,0-2.487-9.139c-2.462-6.486-.671-10.45,1.265-12.632a12.255,12.255,0,0,1,6.566-3.662,16.744,16.744,0,0,1,7.578.069,10.559,10.559,0,0,1,6.407,4.057A10.152,10.152,0,0,1,1773,42.157c6.08-1.315,11.608.94,14.428,5.887,3.246,5.691,1.971,13.007-3.247,18.637a85.492,85.492,0,0,1-12.052,9.6C1766.156,80.24,1761.37,82.23,1757.856,82.23Zm-1.242-38.569a11.255,11.255,0,0,0-8.367,3.264c-2.142,2.416-2.424,5.935-.814,10.176a70.172,70.172,0,0,1,2.586,9.467c1.342,5.99,2.61,11.647,6.144,12.978,6.333,2.384,23.054-11.053,26.254-14.505,5.452-5.882,4.981-12.189,2.921-15.8-2.315-4.059-6.734-5.825-11.823-4.725A7.275,7.275,0,0,0,1768,48.794a1.208,1.208,0,0,1-2.316-.1c-.532-2.176-2.6-3.862-5.68-4.625A14.15,14.15,0,0,0,1756.614,43.661Z" transform="translate(-1743.979 -41.262)" fill="#22c9fb"/></g><g transform="translate(612.721 1233.559)"><path d="M1749.032,56.182a2.611,2.611,0,0,1-.926-.155c-1.731-.652-2.243-2.937-2.785-5.356a24.9,24.9,0,0,0-.906-3.328c-.9-2.362-.244-3.806.461-4.6a4.462,4.462,0,0,1,2.391-1.334,6.1,6.1,0,0,1,2.76.025,3.846,3.846,0,0,1,2.333,1.478,3.7,3.7,0,0,1,2.189-1.323,4.67,4.67,0,0,1,5.255,2.144c1.182,2.073.718,4.737-1.183,6.787a31.121,31.121,0,0,1-4.389,3.5C1752.055,55.457,1750.313,56.182,1749.032,56.182Z" transform="translate(-1743.979 -41.261)" fill="#22c9fb"/></g></g></svg>
