<svg xmlns="http://www.w3.org/2000/svg" viewBox="0 0 278 55"><title>logo-gris</title><g style="isolation:isolate"><path d="M89.07,30.63a14.53,14.53,0,0,1-2.79-.26,9.43,9.43,0,0,1-2.4-.81,8.93,8.93,0,0,1-2-1.36l.84-1.7a9.67,9.67,0,0,0,2.93,1.73,10.51,10.51,0,0,0,3.44.51,6,6,0,0,0,3.57-.91,3,3,0,0,0,1.27-2.55,2.12,2.12,0,0,0-.64-1.6,4.54,4.54,0,0,0-1.73-1c-.73-.24-1.55-.47-2.47-.68s-1.79-.43-2.62-.69a9.65,9.65,0,0,1-2.2-1,4.22,4.22,0,0,1-1.49-1.51,4.38,4.38,0,0,1-.55-2.3,5,5,0,0,1,.87-2.9,5.69,5.69,0,0,1,2.43-2,9.11,9.11,0,0,1,3.7-.7,11.11,11.11,0,0,1,2.54.29,9.13,9.13,0,0,1,2.25.82,8,8,0,0,1,1.85,1.32L95,15.1a9.39,9.39,0,0,0-2.73-1.7,8.43,8.43,0,0,0-3-.54,5.74,5.74,0,0,0-3.51,1,3.09,3.09,0,0,0-1.27,2.64,2.46,2.46,0,0,0,.57,1.7,3.74,3.74,0,0,0,1.59,1,18.89,18.89,0,0,0,2.35.72c.93.22,1.83.45,2.7.7a11.6,11.6,0,0,1,2.31.93A4.53,4.53,0,0,1,95.57,23a3.88,3.88,0,0,1,.6,2.23,4.78,4.78,0,0,1-.87,2.86A5.56,5.56,0,0,1,92.85,30,9.7,9.7,0,0,1,89.07,30.63Z" fill="#707071"/><path d="M107.83,30.63a8.85,8.85,0,0,1-4.66-1.19,7.83,7.83,0,0,1-3-3.4,12,12,0,0,1-1.07-5.24,12,12,0,0,1,1.06-5.25,7.72,7.72,0,0,1,3-3.39,9.78,9.78,0,0,1,9.35,0,7.76,7.76,0,0,1,3,3.39,12,12,0,0,1,1,5.22A12.05,12.05,0,0,1,115.51,26a7.83,7.83,0,0,1-3,3.4A8.85,8.85,0,0,1,107.83,30.63Zm0-1.89a5.81,5.81,0,0,0,4.75-2.07,9,9,0,0,0,1.7-5.9,8.91,8.91,0,0,0-1.7-5.87,6.55,6.55,0,0,0-9.51,0,8.88,8.88,0,0,0-1.72,5.86,9,9,0,0,0,1.72,5.89A5.85,5.85,0,0,0,107.83,28.74Z" fill="#707071"/><path d="M120.63,30.41V11.19h1.7l12.26,16.33-.65.17V11.19h2.11V30.41h-1.73L122.09,14.1l.62-.18V30.41Z" fill="#707071"/><path d="M140.77,30.41V11.19h7.64a7.29,7.29,0,0,1,4.77,1.38,4.86,4.86,0,0,1,1.66,4,4.86,4.86,0,0,1-1.69,3.91,7.21,7.21,0,0,1-4.74,1.41l2-.37a2.88,2.88,0,0,1,1.81.58,3.88,3.88,0,0,1,1.21,1.85l2.43,6.5h-2.35L151.14,24a2.76,2.76,0,0,0-1.26-1.6,4.86,4.86,0,0,0-2.12-.39H143v8.39ZM143,20.18h5.26a5.12,5.12,0,0,0,3.34-.92,3.32,3.32,0,0,0,1.09-2.7,3.23,3.23,0,0,0-1.08-2.66,5.3,5.3,0,0,0-3.35-.88H143Z" fill="#707071"/><path d="M159.48,30.41V11.19h2.21V30.41Z" fill="#707071"/><path d="M172.55,30.63a14.35,14.35,0,0,1-2.78-.26,9.37,9.37,0,0,1-2.41-.81,8.87,8.87,0,0,1-2-1.36l.83-1.7a9.79,9.79,0,0,0,2.93,1.73,10.51,10.51,0,0,0,3.44.51,6,6,0,0,0,3.57-.91,3,3,0,0,0,1.27-2.55,2.09,2.09,0,0,0-.64-1.6,4.5,4.5,0,0,0-1.72-1c-.73-.24-1.56-.47-2.48-.68s-1.79-.43-2.61-.69a9.28,9.28,0,0,1-2.2-1,4.33,4.33,0,0,1-1.5-1.51,4.47,4.47,0,0,1-.54-2.3,5,5,0,0,1,.86-2.9,5.81,5.81,0,0,1,2.43-2,9.15,9.15,0,0,1,3.7-.7,11.11,11.11,0,0,1,2.54.29,9.13,9.13,0,0,1,2.25.82,8,8,0,0,1,1.85,1.32l-.86,1.7a9.14,9.14,0,0,0-2.73-1.7,8.43,8.43,0,0,0-3-.54,5.78,5.78,0,0,0-3.51,1,3.09,3.09,0,0,0-1.27,2.64,2.46,2.46,0,0,0,.57,1.7,3.87,3.87,0,0,0,1.59,1,19.43,19.43,0,0,0,2.35.72c.94.22,1.84.45,2.7.7a11.6,11.6,0,0,1,2.31.93A4.66,4.66,0,0,1,179.06,23a4,4,0,0,1,.59,2.23,4.78,4.78,0,0,1-.87,2.86A5.56,5.56,0,0,1,176.33,30,9.63,9.63,0,0,1,172.55,30.63Z" fill="#707071"/><path d="M183.59,30.41H181.3l8.45-19.22h1.94l8.45,19.22h-2.27l-7.53-17.6h.81Zm1.3-4.94.78-1.83h10.1l.78,1.83Z" fill="#707071"/></g><g style="isolation:isolate"><path d="M209.75,30.41V11.19h12.59V14h-9.16v5.29h8.62V22h-8.62v8.37Z" fill="#707071"/><path d="M225.2,30.41V11.19h12.85v2.73H228.6v5.34h8.91V22H228.6v5.67h9.45v2.72Z" fill="#707071"/><path d="M241.26,30.41V11.19h3.48V27.55h9v2.86Z" fill="#707071"/><path d="M256.38,30.41V11.19h3.48V30.41Z" fill="#707071"/><path d="M263.29,30.41V27.87L274,12.81,274,14h-10.7V11.19h13.83V13.7L266.35,28.79l0-1.16h11v2.78Z" fill="#707071"/></g><g style="isolation:isolate"><path d="M84.92,48.5A3.85,3.85,0,0,1,83,48a3.29,3.29,0,0,1-1.27-1.39,5.42,5.42,0,0,1,0-4.28A3.24,3.24,0,0,1,83,41a3.75,3.75,0,0,1,2-.49,4.22,4.22,0,0,1,1.48.25,3.18,3.18,0,0,1,1.18.73l-.37.77a4,4,0,0,0-1.09-.68,3.54,3.54,0,0,0-1.19-.2,2.41,2.41,0,0,0-1.94.81,3.47,3.47,0,0,0-.69,2.32A3.52,3.52,0,0,0,83,46.82a2.39,2.39,0,0,0,1.94.81,3.54,3.54,0,0,0,1.19-.2,3.75,3.75,0,0,0,1.09-.68l.37.77a3.18,3.18,0,0,1-1.18.73A4.22,4.22,0,0,1,84.92,48.5Z" fill="#707071"/><path d="M91.17,48.49a2.74,2.74,0,0,1-1.4-.35,2.43,2.43,0,0,1-.93-1,3.28,3.28,0,0,1-.33-1.52,3.38,3.38,0,0,1,.33-1.53,2.37,2.37,0,0,1,.93-1,2.65,2.65,0,0,1,1.4-.35,2.68,2.68,0,0,1,1.41.35,2.41,2.41,0,0,1,.92,1,3.38,3.38,0,0,1,.33,1.53,3.28,3.28,0,0,1-.33,1.52,2.47,2.47,0,0,1-.92,1A2.78,2.78,0,0,1,91.17,48.49Zm0-.82a1.47,1.47,0,0,0,1.22-.52,2.94,2.94,0,0,0,0-3.06,1.66,1.66,0,0,0-2.43,0,2.91,2.91,0,0,0,0,3.06A1.47,1.47,0,0,0,91.17,47.67Z" fill="#707071"/><path d="M95.18,48.41v-4c0-.26,0-.51,0-.78s0-.51-.07-.77H96l.1,1.13-.11.07a2,2,0,0,1,.78-1A2.18,2.18,0,0,1,98,42.74c1.33,0,2,.73,2,2.21v3.46H99V45a1.63,1.63,0,0,0-.29-1.09,1.14,1.14,0,0,0-.93-.35,1.52,1.52,0,0,0-1.17.46,1.65,1.65,0,0,0-.44,1.22v3.17Z" fill="#707071"/><path d="M103.57,48.49a3.35,3.35,0,0,1-2.26-.72l.32-.72a3.07,3.07,0,0,0,.92.5,3.21,3.21,0,0,0,1,.16,1.63,1.63,0,0,0,.91-.21.64.64,0,0,0,.31-.58.61.61,0,0,0-.21-.49,2,2,0,0,0-.71-.31L103,45.9a2,2,0,0,1-1.09-.55,1.33,1.33,0,0,1-.38-1,1.42,1.42,0,0,1,.27-.86,1.78,1.78,0,0,1,.75-.59,2.88,2.88,0,0,1,1.15-.21,3.38,3.38,0,0,1,1.1.18,2.65,2.65,0,0,1,.89.54l-.32.72a2.83,2.83,0,0,0-.82-.49,2.32,2.32,0,0,0-.87-.16,1.47,1.47,0,0,0-.87.22.67.67,0,0,0-.31.59.69.69,0,0,0,.19.51,1.68,1.68,0,0,0,.63.3l.94.23a2.29,2.29,0,0,1,1.16.54,1.33,1.33,0,0,1,.38,1,1.36,1.36,0,0,1-.6,1.16A2.64,2.64,0,0,1,103.57,48.49Z" fill="#707071"/><path d="M109.1,48.49a1.91,1.91,0,0,1-1.5-.56,2.35,2.35,0,0,1-.5-1.64V42.88h1v3.4a1.61,1.61,0,0,0,.29,1,1.13,1.13,0,0,0,.9.33,1.49,1.49,0,0,0,1.13-.45,1.7,1.7,0,0,0,.43-1.22V42.88h1v5.53h-1V47.22l.13,0a1.79,1.79,0,0,1-.73,1A2.09,2.09,0,0,1,109.1,48.49Z" fill="#707071"/><path d="M113.52,48.41V40.32h1v8.09Z" fill="#707071"/><path d="M115.44,43.65v-.77h3.63v.77Zm3.6,3.89v.84a2.33,2.33,0,0,1-.38.08,2.54,2.54,0,0,1-.41,0A1.77,1.77,0,0,1,117,48a1.86,1.86,0,0,1-.47-1.37V41.47l1-.35v5.43a1.5,1.5,0,0,0,.13.67.68.68,0,0,0,.34.33,1.26,1.26,0,0,0,.49.09l.29,0A1.43,1.43,0,0,0,119,47.54Z" fill="#707071"/><path d="M122.45,48.49a2.77,2.77,0,0,1-1.4-.35,2.43,2.43,0,0,1-.93-1,3.28,3.28,0,0,1-.33-1.52,3.38,3.38,0,0,1,.33-1.53,2.37,2.37,0,0,1,.93-1,2.67,2.67,0,0,1,1.4-.35,2.64,2.64,0,0,1,1.41.35,2.37,2.37,0,0,1,.93,1,3.38,3.38,0,0,1,.33,1.53,3.28,3.28,0,0,1-.33,1.52,2.43,2.43,0,0,1-.93,1A2.73,2.73,0,0,1,122.45,48.49Zm0-.82a1.47,1.47,0,0,0,1.22-.52,2.94,2.94,0,0,0,0-3.06,1.66,1.66,0,0,0-2.43,0,2.35,2.35,0,0,0-.44,1.53,2.4,2.4,0,0,0,.43,1.53A1.5,1.5,0,0,0,122.45,47.67Z" fill="#707071"/><path d="M126.47,48.41v-4c0-.26,0-.51,0-.78a6.68,6.68,0,0,0-.07-.77h1l.12,1.37-.12,0a1.65,1.65,0,0,1,.65-1.09,1.9,1.9,0,0,1,1.15-.37h.28l.24.05v.92a1.75,1.75,0,0,0-.62-.1,1.54,1.54,0,0,0-.9.24,1.44,1.44,0,0,0-.5.62,2.07,2.07,0,0,0-.15.8v3.12Z" fill="#707071"/><path d="M130.44,40.49h1.18v1.09h-1.18Zm.09,7.92V42.88h1v5.53Z" fill="#707071"/><path d="M135.53,48.49a2.77,2.77,0,0,1-1.4-.35,2.43,2.43,0,0,1-.93-1,3.28,3.28,0,0,1-.33-1.52,3.38,3.38,0,0,1,.33-1.53,2.37,2.37,0,0,1,.93-1,3,3,0,0,1,2.81,0,2.35,2.35,0,0,1,.92,1,3.38,3.38,0,0,1,.33,1.53,3.28,3.28,0,0,1-.33,1.52,2.41,2.41,0,0,1-.92,1A2.78,2.78,0,0,1,135.53,48.49Zm0-.82a1.47,1.47,0,0,0,1.22-.52,2.94,2.94,0,0,0,0-3.06,1.66,1.66,0,0,0-2.43,0,2.35,2.35,0,0,0-.44,1.53,2.4,2.4,0,0,0,.43,1.53A1.48,1.48,0,0,0,135.53,47.67Z" fill="#707071"/><path d="M147.42,48.41h-1V47l.14.13a1.83,1.83,0,0,1-.72,1,2.15,2.15,0,0,1-1.28.37,2.3,2.3,0,0,1-1.27-.36,2.4,2.4,0,0,1-.87-1,3.62,3.62,0,0,1-.31-1.52,3.44,3.44,0,0,1,.31-1.52,2.26,2.26,0,0,1,.86-1,2.3,2.3,0,0,1,1.28-.35,2.15,2.15,0,0,1,1.28.37,1.87,1.87,0,0,1,.72,1l-.15.14v-4h1Zm-2.63-.74a1.43,1.43,0,0,0,1.21-.53,2.33,2.33,0,0,0,.43-1.52A2.43,2.43,0,0,0,146,44.1a1.46,1.46,0,0,0-1.22-.54,1.52,1.52,0,0,0-1.22.53,2.34,2.34,0,0,0-.44,1.51,2.38,2.38,0,0,0,.44,1.53A1.5,1.5,0,0,0,144.79,47.67Z" fill="#707071"/><path d="M153.67,47.76a2.48,2.48,0,0,1-.93.54,3.92,3.92,0,0,1-1.17.19,3.08,3.08,0,0,1-1.5-.34,2.35,2.35,0,0,1-1-1,3.2,3.2,0,0,1-.35-1.53,3.29,3.29,0,0,1,.34-1.51,2.55,2.55,0,0,1,.93-1,2.58,2.58,0,0,1,1.36-.36,2.43,2.43,0,0,1,1.29.33,2.14,2.14,0,0,1,.81.94,3.38,3.38,0,0,1,.28,1.45v.18h-4.12V45h3.55l-.31.4a2.28,2.28,0,0,0-.36-1.43,1.34,1.34,0,0,0-1.13-.49,1.46,1.46,0,0,0-1.2.54,2.37,2.37,0,0,0-.43,1.52,2.34,2.34,0,0,0,.46,1.59,1.69,1.69,0,0,0,1.36.54,2.93,2.93,0,0,0,.93-.16,3,3,0,0,0,.83-.48Z" fill="#707071"/><path d="M159.9,48.49a3.35,3.35,0,0,1-2.26-.72l.32-.72a3.07,3.07,0,0,0,.92.5,3.21,3.21,0,0,0,1.05.16,1.63,1.63,0,0,0,.91-.21.64.64,0,0,0,.31-.58.61.61,0,0,0-.21-.49,2,2,0,0,0-.71-.31l-.93-.22a2,2,0,0,1-1.09-.55,1.29,1.29,0,0,1-.38-1,1.42,1.42,0,0,1,.27-.86,1.78,1.78,0,0,1,.75-.59,2.88,2.88,0,0,1,1.15-.21,3.38,3.38,0,0,1,1.1.18,2.65,2.65,0,0,1,.89.54l-.32.72a2.83,2.83,0,0,0-.82-.49,2.35,2.35,0,0,0-.87-.16,1.47,1.47,0,0,0-.87.22.67.67,0,0,0-.31.59.69.69,0,0,0,.19.51,1.68,1.68,0,0,0,.63.3l.94.23a2.29,2.29,0,0,1,1.16.54,1.33,1.33,0,0,1,.38,1,1.36,1.36,0,0,1-.6,1.16A2.64,2.64,0,0,1,159.9,48.49Z" fill="#707071"/><path d="M165.58,48.49a2.39,2.39,0,0,1-1.28-.35,2.26,2.26,0,0,1-.86-1,3.39,3.39,0,0,1-.31-1.51,3.44,3.44,0,0,1,.31-1.52,2.56,2.56,0,0,1,.87-1,2.3,2.3,0,0,1,1.27-.36,2.22,2.22,0,0,1,1.28.36,1.82,1.82,0,0,1,.71,1.06l-.13.07V42.88h1v5.53h-1V47l.13,0a1.77,1.77,0,0,1-.71,1A2.15,2.15,0,0,1,165.58,48.49Zm.22-.82a1.45,1.45,0,0,0,1.22-.53,2.95,2.95,0,0,0,0-3,1.64,1.64,0,0,0-2.43,0,2.42,2.42,0,0,0-.44,1.53,2.34,2.34,0,0,0,.44,1.51A1.51,1.51,0,0,0,165.8,47.67Z" fill="#707071"/><path d="M170.1,48.41V40.32h1v8.09Z" fill="#707071"/><path d="M174.75,48.49a2,2,0,0,1-1.51-.56,2.4,2.4,0,0,1-.5-1.64V42.88h1v3.4a1.55,1.55,0,0,0,.29,1,1.12,1.12,0,0,0,.89.33,1.51,1.51,0,0,0,1.14-.45A1.74,1.74,0,0,0,176.5,46V42.88h1v5.53h-1V47.22l.13,0a1.81,1.81,0,0,1-.74,1A2,2,0,0,1,174.75,48.49Z" fill="#707071"/><path d="M184.14,48.41h-1V47l.13.13a1.77,1.77,0,0,1-.71,1,2.15,2.15,0,0,1-1.28.37,2.3,2.3,0,0,1-1.27-.36,2.4,2.4,0,0,1-.87-1,3.88,3.88,0,0,1,0-3,2.26,2.26,0,0,1,.86-1,2.3,2.3,0,0,1,1.28-.35,2.15,2.15,0,0,1,1.28.37,1.81,1.81,0,0,1,.71,1l-.14.14v-4h1Zm-2.63-.74a1.44,1.44,0,0,0,1.21-.53,2.33,2.33,0,0,0,.43-1.52,2.43,2.43,0,0,0-.42-1.52,1.47,1.47,0,0,0-1.22-.54,1.5,1.5,0,0,0-1.22.53,2.34,2.34,0,0,0-.44,1.51,2.38,2.38,0,0,0,.44,1.53A1.48,1.48,0,0,0,181.51,47.67Z" fill="#707071"/><path d="M190.48,48.72,188,42.88h1L191,47.64Zm-2,2.19-.2-.77a5.29,5.29,0,0,0,.85-.28,1.74,1.74,0,0,0,.57-.41,2.13,2.13,0,0,0,.41-.65l.37-.83.23-.33,2-4.76h1l-2.59,6a3.7,3.7,0,0,1-.68,1.1,2.69,2.69,0,0,1-.86.62A4.78,4.78,0,0,1,188.47,50.91Z" fill="#707071"/><path d="M202.07,47.76a2.48,2.48,0,0,1-.93.54,4,4,0,0,1-1.17.19,3.08,3.08,0,0,1-1.5-.34,2.35,2.35,0,0,1-1-1,3.2,3.2,0,0,1-.35-1.53,3.29,3.29,0,0,1,.34-1.51,2.47,2.47,0,0,1,2.29-1.38,2.37,2.37,0,0,1,1.28.33,2.1,2.1,0,0,1,.82.94,3.38,3.38,0,0,1,.28,1.45v.18H198V45h3.56l-.31.4a2.28,2.28,0,0,0-.36-1.43,1.34,1.34,0,0,0-1.13-.49,1.46,1.46,0,0,0-1.2.54,2.37,2.37,0,0,0-.44,1.52,2.34,2.34,0,0,0,.47,1.59,1.69,1.69,0,0,0,1.36.54,2.82,2.82,0,0,0,.92-.16,2.94,2.94,0,0,0,.84-.48Z" fill="#707071"/><path d="M205.39,48.49a3.32,3.32,0,0,1-2.25-.72l.32-.72a3.15,3.15,0,0,0,.91.5,3.23,3.23,0,0,0,1.06.16,1.62,1.62,0,0,0,.9-.21.65.65,0,0,0,.32-.58.61.61,0,0,0-.22-.49,1.91,1.91,0,0,0-.71-.31l-.92-.22a2,2,0,0,1-1.1-.55,1.33,1.33,0,0,1-.38-1,1.42,1.42,0,0,1,.27-.86,1.76,1.76,0,0,1,.76-.59,2.83,2.83,0,0,1,1.14-.21,3.4,3.4,0,0,1,1.11.18,2.61,2.61,0,0,1,.88.54l-.32.72a2.66,2.66,0,0,0-.81-.49,2.35,2.35,0,0,0-.87-.16,1.47,1.47,0,0,0-.87.22.68.68,0,0,0-.32.59.69.69,0,0,0,.2.51,1.54,1.54,0,0,0,.63.3l.93.23a2.28,2.28,0,0,1,1.17.54,1.32,1.32,0,0,1,.37,1,1.37,1.37,0,0,1-.59,1.16A2.67,2.67,0,0,1,205.39,48.49Z" fill="#707071"/><path d="M208.14,43.65v-.77h3.63v.77Zm3.61,3.89v.84a2.33,2.33,0,0,1-.38.08,2.63,2.63,0,0,1-.41,0,1.77,1.77,0,0,1-1.28-.46,1.82,1.82,0,0,1-.47-1.37V41.47l1-.35v5.43a1.37,1.37,0,0,0,.13.67.64.64,0,0,0,.34.33,1.22,1.22,0,0,0,.49.09l.28,0A1.35,1.35,0,0,0,211.75,47.54Z" fill="#707071"/><path d="M217.4,47.76a2.48,2.48,0,0,1-.93.54,3.87,3.87,0,0,1-1.17.19,3,3,0,0,1-1.49-.34,2.37,2.37,0,0,1-1-1,3.2,3.2,0,0,1-.34-1.53,3.29,3.29,0,0,1,.33-1.51,2.7,2.7,0,0,1,.93-1,2.59,2.59,0,0,1,1.37-.36,2.39,2.39,0,0,1,1.28.33,2.08,2.08,0,0,1,.81.94,3.38,3.38,0,0,1,.28,1.45v.18h-4.12V45h3.55l-.31.4a2.16,2.16,0,0,0-.36-1.43,1.33,1.33,0,0,0-1.12-.49,1.46,1.46,0,0,0-1.21.54,2.37,2.37,0,0,0-.43,1.52,2.34,2.34,0,0,0,.46,1.59,1.69,1.69,0,0,0,1.36.54,2.84,2.84,0,0,0,.93-.16,3,3,0,0,0,.83-.48Zm-1.93-5.6h-.69l1.09-2.25H217Z" fill="#707071"/><path d="M218,43.65v-.77h3.63v.77Zm3.61,3.89v.84a2.57,2.57,0,0,1-.38.08,2.73,2.73,0,0,1-.41,0,1.8,1.8,0,0,1-1.29-.46,1.86,1.86,0,0,1-.46-1.37V41.47l1-.35v5.43a1.51,1.51,0,0,0,.12.67.7.7,0,0,0,.35.33,1.21,1.21,0,0,0,.48.09l.29,0A1.35,1.35,0,0,0,221.63,47.54Z" fill="#707071"/><path d="M222.62,40.49h1.17v1.09h-1.17Zm.09,7.92V42.88h1v5.53Z" fill="#707071"/><path d="M227.74,48.49a2.83,2.83,0,0,1-1.43-.35,2.46,2.46,0,0,1-.93-1,3.26,3.26,0,0,1-.33-1.51,3.37,3.37,0,0,1,.33-1.52,2.43,2.43,0,0,1,1-1,2.81,2.81,0,0,1,1.45-.36,3.14,3.14,0,0,1,1.1.19,2.51,2.51,0,0,1,.87.53l-.32.73a3.49,3.49,0,0,0-.79-.47,2.05,2.05,0,0,0-.81-.16,1.63,1.63,0,0,0-1.28.54,2.24,2.24,0,0,0-.48,1.54,2.19,2.19,0,0,0,.48,1.51,1.63,1.63,0,0,0,1.29.52,2.26,2.26,0,0,0,.8-.15,3.16,3.16,0,0,0,.79-.47l.32.72a2.6,2.6,0,0,1-.89.53A3.57,3.57,0,0,1,227.74,48.49Z" fill="#707071"/><path d="M233,48.49a2.3,2.3,0,0,1-2.15-1.34,3.54,3.54,0,0,1-.3-1.51,3.44,3.44,0,0,1,.31-1.52,2.56,2.56,0,0,1,.87-1,2.27,2.27,0,0,1,1.27-.36,2.18,2.18,0,0,1,1.27.36,1.83,1.83,0,0,1,.72,1.06l-.13.07V42.88h1v5.53h-1V47l.13,0a1.78,1.78,0,0,1-.72,1A2.12,2.12,0,0,1,233,48.49Zm.22-.82a1.43,1.43,0,0,0,1.21-.53,2.33,2.33,0,0,0,.43-1.52,2.44,2.44,0,0,0-.43-1.53,1.48,1.48,0,0,0-1.21-.53,1.46,1.46,0,0,0-1.22.55,2.36,2.36,0,0,0-.44,1.53,2.28,2.28,0,0,0,.44,1.51A1.5,1.5,0,0,0,233.19,47.67Z" fill="#707071"/><path d="M245.36,48.41h-1V47l.13.13a1.83,1.83,0,0,1-.72,1,2.12,2.12,0,0,1-1.27.37,2.27,2.27,0,0,1-1.27-.36,2.4,2.4,0,0,1-.87-1,3.47,3.47,0,0,1-.32-1.52,3.58,3.58,0,0,1,.31-1.52,2.27,2.27,0,0,1,2.15-1.34,2.12,2.12,0,0,1,1.27.37,1.87,1.87,0,0,1,.72,1l-.15.14v-4h1Zm-2.62-.74a1.46,1.46,0,0,0,1.21-.53,2.39,2.39,0,0,0,.43-1.52A2.43,2.43,0,0,0,244,44.1a1.45,1.45,0,0,0-1.21-.54,1.5,1.5,0,0,0-1.22.53,2.29,2.29,0,0,0-.45,1.51,2.33,2.33,0,0,0,.45,1.53A1.48,1.48,0,0,0,242.74,47.67Z" fill="#707071"/><path d="M251.61,47.76a2.48,2.48,0,0,1-.93.54,3.87,3.87,0,0,1-1.17.19,3,3,0,0,1-1.49-.34,2.37,2.37,0,0,1-1-1,3.2,3.2,0,0,1-.34-1.53,3.29,3.29,0,0,1,.33-1.51,2.7,2.7,0,0,1,.93-1,2.59,2.59,0,0,1,1.37-.36,2.39,2.39,0,0,1,1.28.33,2.08,2.08,0,0,1,.81.94,3.38,3.38,0,0,1,.28,1.45v.18h-4.12V45h3.55l-.31.4a2.16,2.16,0,0,0-.36-1.43,1.33,1.33,0,0,0-1.12-.49,1.46,1.46,0,0,0-1.21.54,2.37,2.37,0,0,0-.43,1.52,2.34,2.34,0,0,0,.46,1.59,1.69,1.69,0,0,0,1.36.54,2.84,2.84,0,0,0,.93-.16,3,3,0,0,0,.83-.48Z" fill="#707071"/><path d="M253,48.41v-4c0-.26,0-.51,0-.78s0-.51-.08-.77h.95L254,44l-.11.07a2,2,0,0,1,.77-1,2.23,2.23,0,0,1,1.23-.34c1.33,0,2,.73,2,2.21v3.46h-1V45a1.69,1.69,0,0,0-.29-1.09,1.16,1.16,0,0,0-.93-.35,1.56,1.56,0,0,0-1.18.46,1.69,1.69,0,0,0-.44,1.22v3.17Z" fill="#707071"/><path d="M258.75,43.65v-.77h3.63v.77Zm3.61,3.89v.84a2.33,2.33,0,0,1-.38.08,2.63,2.63,0,0,1-.41,0,1.77,1.77,0,0,1-1.28-.46,1.86,1.86,0,0,1-.47-1.37V41.47l1-.35v5.43a1.37,1.37,0,0,0,.13.67.68.68,0,0,0,.34.33,1.22,1.22,0,0,0,.49.09l.28,0A1.35,1.35,0,0,0,262.36,47.54Z" fill="#707071"/><path d="M265.56,48.49a2.39,2.39,0,0,1-1.28-.35,2.26,2.26,0,0,1-.86-1,3.39,3.39,0,0,1-.31-1.51,3.44,3.44,0,0,1,.31-1.52,2.56,2.56,0,0,1,.87-1,2.27,2.27,0,0,1,1.27-.36,2.24,2.24,0,0,1,1.28.36,1.82,1.82,0,0,1,.71,1.06l-.13.07V42.88h1v5.53h-1V47l.13,0a1.77,1.77,0,0,1-.71,1A2.17,2.17,0,0,1,265.56,48.49Zm.22-.82a1.46,1.46,0,0,0,1.22-.53,2.95,2.95,0,0,0,0-3,1.48,1.48,0,0,0-1.21-.53,1.46,1.46,0,0,0-1.22.55,2.42,2.42,0,0,0-.44,1.53,2.34,2.34,0,0,0,.44,1.51A1.5,1.5,0,0,0,265.78,47.67Z" fill="#707071"/><path d="M270.08,48.41V40.32h1v8.09Z" fill="#707071"/></g><path d="M59,9.38C55.21,2.84,47.78-.14,39.61,1.6a13.66,13.66,0,0,0-8.09,4.8C29.79,3.87,26.8,2,22.91,1A22.76,22.76,0,0,0,12.72.94,16.53,16.53,0,0,0,3.9,5.78c-2.6,2.89-5,8.13-1.7,16.71A90,90,0,0,1,5.54,34.57c2,8.79,3.89,17.09,10.28,19.46a9.74,9.74,0,0,0,3.42.56c3.38,0,7.62-1.35,12.7-4,3.74,2.4,7,3.59,9.69,3.59a8,8,0,0,0,3-.54c2.9-1.14,8.37-5,12.33-17.84a62.5,62.5,0,0,0,1.8-7.41C62.12,22.09,62.33,15.11,59,9.38ZM17,51c-4.76-1.76-6.46-9.24-8.26-17.16A91.79,91.79,0,0,0,5.23,21.36C3.07,15.75,3.45,11.1,6.33,7.9c2.48-2.75,6.75-4.32,11.25-4.32a19.42,19.42,0,0,1,4.56.55c4.14,1,6.92,3.24,7.64,6.11a1.63,1.63,0,0,0,3.11.13C33,10.19,34.49,6,40.3,4.71c6.84-1.45,12.78.88,15.89,6.25,2.77,4.78,3.4,13.12-3.92,20.9C48,36.43,25.48,54.2,17,51Zm16.62-1.36-.15.08Zm9.82,1c-2,.77-4.78.09-8.24-1.9,1.06-.63,2.15-1.3,3.27-2A123.84,123.84,0,0,0,53.87,34.79h0c-2.29,7.48-6,14.11-10.46,15.87Zm10.9-16.29v0Zm2.54-3,.09-.12Zm1-1.52v0Zm-.49.75,0-.06Z" fill="#707071"/><path d="M38.44,46.73c-1.12.73-2.21,1.4-3.27,2,3.46,2,6.27,2.67,8.24,1.9,4.49-1.76,8.18-8.39,10.46-15.87A122,122,0,0,1,38.44,46.73Z" fill="#707071" opacity="0.33" style="isolation:isolate"/><path d="M31.69,34.87a16.35,16.35,0,0,1-4.63-.18,18.49,18.49,0,0,1-10.6-5.57,27.55,27.55,0,0,1-2-2.46.7.7,0,0,1,0-1c.22-.25.5-.21.81.09a13,13,0,0,0,3.82,2.4,18.41,18.41,0,0,0,4.59,1.32c1.33.2,2.67.3,4,.39a26.36,26.36,0,0,0,5.25-.23,29.56,29.56,0,0,0,4.75-1,19.58,19.58,0,0,0,6.84-3.43c.68-.56,1.29-1.25,1.93-1.89.1-.1.2-.22.3-.31a.41.41,0,0,1,.59,0l0,.05a.66.66,0,0,1,.15.74c-.22.5-.45,1-.7,1.46A18.24,18.24,0,0,1,40.44,32a19.27,19.27,0,0,1-8.74,2.85Z" fill="#707071"/><path d="M46.88,22a1.45,1.45,0,0,1-.36,0,.7.7,0,0,1-.46-.63.67.67,0,0,1,.45-.66,2,2,0,0,1,1.76.35,3,3,0,0,1,1.27,2.68c0,.42-.24.67-.55.65s-.51-.26-.54-.7a1.65,1.65,0,0,0-1-1.65,2.8,2.8,0,0,0-.57-.08Z" fill="#707071"/><path d="M14.46,24.65a1.44,1.44,0,0,0-1.27,1.61.78.78,0,0,0,0,.14l0,.29a.59.59,0,0,1-.41.66A.51.51,0,0,1,12.2,27s0,0,0,0a3,3,0,0,1,.27-2.3,2.28,2.28,0,0,1,1.88-1.3c.49,0,.82.2.85.62a.64.64,0,0,1-.55.72Z" fill="#707071"/></svg>