<svg xmlns="http://www.w3.org/2000/svg" viewBox="0 0 369 71"><title>logo</title><g style="isolation:isolate"><path d="M117.08,40.39a19.64,19.64,0,0,1-3.7-.34A12.77,12.77,0,0,1,110.17,39a12,12,0,0,1-2.66-1.82l1.11-2.27a12.59,12.59,0,0,0,3.91,2.3,13.85,13.85,0,0,0,4.59.69,8,8,0,0,0,4.75-1.21,3.92,3.92,0,0,0,1.69-3.4,2.83,2.83,0,0,0-.84-2.14,6,6,0,0,0-2.31-1.3c-1-.32-2.07-.63-3.29-.92s-2.39-.57-3.49-.92a12.58,12.58,0,0,1-2.94-1.31,5.82,5.82,0,0,1-2-2,5.92,5.92,0,0,1-.72-3.06,6.66,6.66,0,0,1,1.15-3.87,7.7,7.7,0,0,1,3.24-2.61,12,12,0,0,1,4.93-.93,14.35,14.35,0,0,1,3.38.38,13.12,13.12,0,0,1,3,1.09,10.48,10.48,0,0,1,2.47,1.77L125,19.69a12.09,12.09,0,0,0-3.63-2.27,11.27,11.27,0,0,0-4.07-.72A7.7,7.7,0,0,0,112.62,18a4.13,4.13,0,0,0-1.69,3.53,3.36,3.36,0,0,0,.75,2.27,5.39,5.39,0,0,0,2.13,1.38,24.48,24.48,0,0,0,3.13.95c1.25.29,2.45.6,3.6.94a15.82,15.82,0,0,1,3.08,1.24,6,6,0,0,1,2.14,1.91,5.17,5.17,0,0,1,.79,3A6.4,6.4,0,0,1,125.4,37a7.48,7.48,0,0,1-3.28,2.52A12.82,12.82,0,0,1,117.08,40.39Z" fill="#707071"/><path d="M142.1,40.39a11.71,11.71,0,0,1-6.21-1.59,10.47,10.47,0,0,1-4-4.53,15.94,15.94,0,0,1-1.42-7,16.19,16.19,0,0,1,1.4-7,10.48,10.48,0,0,1,4-4.52,13.09,13.09,0,0,1,12.47,0,10.37,10.37,0,0,1,4,4.52,16,16,0,0,1,1.41,7,16.16,16.16,0,0,1-1.42,7,10.5,10.5,0,0,1-4,4.53A11.71,11.71,0,0,1,142.1,40.39Zm0-2.52a7.74,7.74,0,0,0,6.34-2.76q2.26-2.74,2.27-7.86t-2.27-7.83a8.75,8.75,0,0,0-12.69,0c-1.52,1.83-2.29,4.43-2.29,7.82s.77,6,2.29,7.84A7.77,7.77,0,0,0,142.1,37.87Z" fill="#707071"/><path d="M159.17,40.1V14.47h2.26l16.35,21.78-.87.21v-22h2.81V40.1h-2.3L161.11,18.35l.83-.25v22Z" fill="#707071"/><path d="M186,40.1V14.47h10.19a9.71,9.71,0,0,1,6.35,1.83,6.49,6.49,0,0,1,2.22,5.29,6.44,6.44,0,0,1-2.25,5.21,9.55,9.55,0,0,1-6.32,1.89l2.66-.51a3.86,3.86,0,0,1,2.42.78,5.29,5.29,0,0,1,1.62,2.46l3.24,8.68H203l-3.17-8.53a3.65,3.65,0,0,0-1.68-2.14,6.41,6.41,0,0,0-2.82-.53h-6.41V40.1Zm2.92-13.64h7a6.76,6.76,0,0,0,4.44-1.23,4.4,4.4,0,0,0,1.46-3.6,4.29,4.29,0,0,0-1.44-3.54A6.94,6.94,0,0,0,196,16.92h-7Z" fill="#707071"/><path d="M211,40.1V14.47h2.95V40.1Z" fill="#707071"/><path d="M228.39,40.39a19.64,19.64,0,0,1-3.7-.34A12.77,12.77,0,0,1,221.48,39a12,12,0,0,1-2.66-1.82l1.11-2.27a12.59,12.59,0,0,0,3.91,2.3,13.85,13.85,0,0,0,4.59.69,8,8,0,0,0,4.75-1.21,3.92,3.92,0,0,0,1.69-3.4,2.83,2.83,0,0,0-.84-2.14,6,6,0,0,0-2.31-1.3c-1-.32-2.07-.63-3.29-.92s-2.39-.57-3.49-.92A12.58,12.58,0,0,1,222,26.67a5.82,5.82,0,0,1-2-2,5.92,5.92,0,0,1-.72-3.06,6.66,6.66,0,0,1,1.15-3.87,7.7,7.7,0,0,1,3.24-2.61,12,12,0,0,1,4.93-.93,14.35,14.35,0,0,1,3.38.38,13.12,13.12,0,0,1,3,1.09,10.48,10.48,0,0,1,2.47,1.77l-1.16,2.27a12.09,12.09,0,0,0-3.63-2.27,11.27,11.27,0,0,0-4.07-.72A7.7,7.7,0,0,0,223.93,18a4.13,4.13,0,0,0-1.69,3.53,3.36,3.36,0,0,0,.75,2.27,5.39,5.39,0,0,0,2.13,1.38,24.48,24.48,0,0,0,3.13.95c1.25.29,2.45.6,3.6.94a15.82,15.82,0,0,1,3.08,1.24,6,6,0,0,1,2.14,1.91,5.17,5.17,0,0,1,.79,3A6.4,6.4,0,0,1,236.71,37a7.48,7.48,0,0,1-3.28,2.52A12.82,12.82,0,0,1,228.39,40.39Z" fill="#707071"/><path d="M243.12,40.1h-3.06l11.27-25.63h2.59L265.19,40.1h-3l-10-23.47h1.08Zm1.73-6.59,1-2.45h13.46l1,2.45Z" fill="#707071"/></g><g style="isolation:isolate"><path d="M278,40.1V14.47h16.78v3.71H282.57v7.05h11.49v3.71H282.57V40.1Z" fill="#24bfce"/><path d="M298.59,40.1V14.47h17.14V18.1h-12.6v7.13H315V28.9H303.13v7.56h12.6V40.1Z" fill="#24bfce"/><path d="M320,40.1V14.47h4.65V36.28h11.95V40.1Z" fill="#24bfce"/><path d="M340.17,40.1V14.47h4.65V40.1Z" fill="#24bfce"/><path d="M349.39,40.1V36.72l14.29-20.09,0,1.55H349.39V14.47h18.43v3.34L353.46,37.94l.07-1.55h14.69V40.1Z" fill="#24bfce"/></g><g style="isolation:isolate"><path d="M111.69,63.22a5.18,5.18,0,0,1-2.67-.66,4.35,4.35,0,0,1-1.73-1.89,6.49,6.49,0,0,1-.61-2.93,6.38,6.38,0,0,1,.61-2.91A4.35,4.35,0,0,1,109,53a5.18,5.18,0,0,1,2.67-.66,5.83,5.83,0,0,1,2,.34,4.36,4.36,0,0,1,1.61,1l-.51,1a5.16,5.16,0,0,0-1.49-.92,4.75,4.75,0,0,0-1.62-.28,3.25,3.25,0,0,0-2.64,1.11,4.68,4.68,0,0,0-.94,3.15,4.82,4.82,0,0,0,.93,3.18A3.26,3.26,0,0,0,111.7,62a4.75,4.75,0,0,0,1.62-.27,5.21,5.21,0,0,0,1.49-.93l.51,1.05a4.38,4.38,0,0,1-1.61,1A5.83,5.83,0,0,1,111.69,63.22Z" fill="#707071"/><path d="M120.21,63.2a3.69,3.69,0,0,1-1.91-.48A3.25,3.25,0,0,1,117,61.37a4.52,4.52,0,0,1-.45-2.08,4.58,4.58,0,0,1,.45-2.08,3.24,3.24,0,0,1,1.27-1.37,4.06,4.06,0,0,1,3.83,0,3.28,3.28,0,0,1,1.26,1.37,4.58,4.58,0,0,1,.45,2.08,4.52,4.52,0,0,1-.45,2.08,3.29,3.29,0,0,1-1.26,1.35A3.7,3.7,0,0,1,120.21,63.2Zm0-1.11a2,2,0,0,0,1.66-.71,3.21,3.21,0,0,0,.59-2.09,3.25,3.25,0,0,0-.59-2.09,2.26,2.26,0,0,0-3.31,0,4,4,0,0,0,0,4.18A2,2,0,0,0,120.21,62.09Z" fill="#707071"/><path d="M125.68,63.1V57.67c0-.35,0-.7,0-1.06a9.5,9.5,0,0,0-.1-1.06h1.29L127,57.1l-.15.09a2.69,2.69,0,0,1,1.06-1.36,3,3,0,0,1,1.67-.47c1.81,0,2.71,1,2.71,3V63.1h-1.36V58.45a2.25,2.25,0,0,0-.4-1.49,1.55,1.55,0,0,0-1.27-.48,2.1,2.1,0,0,0-1.6.63,2.29,2.29,0,0,0-.6,1.67V63.1Z" fill="#707071"/><path d="M137.11,63.2a4.56,4.56,0,0,1-3.07-1l.43-1a4.08,4.08,0,0,0,1.26.68,4.33,4.33,0,0,0,1.43.22,2.26,2.26,0,0,0,1.24-.28.89.89,0,0,0,.42-.8.82.82,0,0,0-.29-.67,2.48,2.48,0,0,0-1-.41l-1.26-.3a2.85,2.85,0,0,1-1.49-.75,1.85,1.85,0,0,1-.52-1.31,2,2,0,0,1,.37-1.17,2.54,2.54,0,0,1,1-.8,3.91,3.91,0,0,1,1.56-.29,4.47,4.47,0,0,1,1.51.25,3.33,3.33,0,0,1,1.2.74l-.43,1a3.78,3.78,0,0,0-1.11-.66,3.22,3.22,0,0,0-1.19-.22,2.05,2.05,0,0,0-1.19.3,1,1,0,0,0-.43.81.9.9,0,0,0,.27.69,2,2,0,0,0,.86.4L138,59a3.11,3.11,0,0,1,1.59.74,1.83,1.83,0,0,1,.51,1.33,1.85,1.85,0,0,1-.81,1.58A3.6,3.6,0,0,1,137.11,63.2Z" fill="#707071"/><path d="M144.66,63.2a2.64,2.64,0,0,1-2-.75,3.31,3.31,0,0,1-.68-2.25V55.55h1.36v4.64a2.16,2.16,0,0,0,.4,1.43,1.52,1.52,0,0,0,1.22.46,2,2,0,0,0,1.55-.62A2.33,2.33,0,0,0,147,59.8V55.55h1.38V63.1h-1.33V61.48l.18-.08a2.54,2.54,0,0,1-1,1.35A2.9,2.9,0,0,1,144.66,63.2Z" fill="#707071"/><path d="M150.69,63.1v-11h1.36v11Z" fill="#707071"/><path d="M153.3,56.6V55.55h4.95V56.6Zm4.92,5.31v1.14a4.37,4.37,0,0,1-.52.12,4.86,4.86,0,0,1-.56,0,2.39,2.39,0,0,1-1.75-.63,2.53,2.53,0,0,1-.64-1.86V53.63l1.37-.48v7.41a2,2,0,0,0,.17.91.93.93,0,0,0,.47.45,1.53,1.53,0,0,0,.66.13,2.38,2.38,0,0,0,.39,0A2.83,2.83,0,0,0,158.22,61.91Z" fill="#707071"/><path d="M162.87,63.2a3.69,3.69,0,0,1-1.91-.48,3.25,3.25,0,0,1-1.27-1.35,4.52,4.52,0,0,1-.45-2.08,4.58,4.58,0,0,1,.45-2.08A3.24,3.24,0,0,1,161,55.84a4.06,4.06,0,0,1,3.83,0,3.28,3.28,0,0,1,1.26,1.37,4.58,4.58,0,0,1,.45,2.08,4.52,4.52,0,0,1-.45,2.08,3.29,3.29,0,0,1-1.26,1.35A3.7,3.7,0,0,1,162.87,63.2Zm0-1.11a2,2,0,0,0,1.66-.71,3.21,3.21,0,0,0,.59-2.09,3.25,3.25,0,0,0-.59-2.09,2.26,2.26,0,0,0-3.31,0,4,4,0,0,0,0,4.18A2,2,0,0,0,162.87,62.09Z" fill="#707071"/><path d="M168.34,63.1V57.67c0-.35,0-.7,0-1.06a9.5,9.5,0,0,0-.1-1.06h1.29l.17,1.88-.17-.06a2.27,2.27,0,0,1,.9-1.49,2.56,2.56,0,0,1,1.56-.51,2.38,2.38,0,0,1,.39,0,1.65,1.65,0,0,1,.32.06l0,1.25a2.47,2.47,0,0,0-.84-.14,2.08,2.08,0,0,0-1.23.33,1.89,1.89,0,0,0-.67.84,2.87,2.87,0,0,0-.21,1.1V63.1Z" fill="#707071"/><path d="M173.76,52.3h1.6v1.48h-1.6Zm.12,10.8V55.55h1.36V63.1Z" fill="#707071"/><path d="M180.7,63.2a3.71,3.71,0,0,1-1.91-.48,3.31,3.31,0,0,1-1.27-1.35,4.52,4.52,0,0,1-.45-2.08,4.58,4.58,0,0,1,.45-2.08,3.3,3.3,0,0,1,1.27-1.37,4.06,4.06,0,0,1,3.83,0,3.28,3.28,0,0,1,1.26,1.37,4.58,4.58,0,0,1,.45,2.08,4.52,4.52,0,0,1-.45,2.08,3.29,3.29,0,0,1-1.26,1.35A3.7,3.7,0,0,1,180.7,63.2Zm0-1.11a2,2,0,0,0,1.67-.71,4,4,0,0,0,0-4.18,2.26,2.26,0,0,0-3.31,0,4,4,0,0,0,0,4.18A2,2,0,0,0,180.7,62.09Z" fill="#707071"/><path d="M196.92,63.1h-1.35v-2l.18.18a2.47,2.47,0,0,1-1,1.42,2.93,2.93,0,0,1-1.74.5,3.17,3.17,0,0,1-1.73-.48,3.33,3.33,0,0,1-1.18-1.38,5.25,5.25,0,0,1,0-4.14A3.12,3.12,0,0,1,193,55.36a2.93,2.93,0,0,1,1.74.51,2.51,2.51,0,0,1,1,1.41l-.2.18v-5.4h1.37Zm-3.59-1a2,2,0,0,0,1.65-.72,4,4,0,0,0,0-4.15,2,2,0,0,0-1.66-.74,2,2,0,0,0-1.66.73,3.15,3.15,0,0,0-.6,2,3.23,3.23,0,0,0,.6,2.09A2,2,0,0,0,193.33,62.09Z" fill="#707071"/><path d="M205.44,62.21a3.39,3.39,0,0,1-1.28.73,4.82,4.82,0,0,1-1.59.26,4.21,4.21,0,0,1-2-.46,3.22,3.22,0,0,1-1.32-1.34,4.46,4.46,0,0,1-.46-2.1,4.33,4.33,0,0,1,.46-2,3.46,3.46,0,0,1,1.26-1.39,3.5,3.5,0,0,1,1.86-.5,3.25,3.25,0,0,1,1.75.45,2.84,2.84,0,0,1,1.11,1.28,4.68,4.68,0,0,1,.38,2v.24H200v-.84h4.84l-.42.54a3,3,0,0,0-.49-2,1.82,1.82,0,0,0-1.53-.68,2,2,0,0,0-1.64.75,3.19,3.19,0,0,0-.6,2.07,3.23,3.23,0,0,0,.63,2.17,2.31,2.31,0,0,0,1.86.73,3.56,3.56,0,0,0,1.26-.22,3.85,3.85,0,0,0,1.14-.65Z" fill="#707071"/><path d="M213.93,63.2a4.59,4.59,0,0,1-3.08-1l.44-1a4.15,4.15,0,0,0,1.25.68,4.38,4.38,0,0,0,1.43.22,2.23,2.23,0,0,0,1.24-.28.88.88,0,0,0,.43-.8.86.86,0,0,0-.29-.67,2.55,2.55,0,0,0-1-.41l-1.26-.3a2.81,2.81,0,0,1-1.49-.75,1.81,1.81,0,0,1-.52-1.31,1.92,1.92,0,0,1,.37-1.17,2.44,2.44,0,0,1,1-.8,3.91,3.91,0,0,1,1.56-.29,4.43,4.43,0,0,1,1.51.25,3.29,3.29,0,0,1,1.21.74l-.44,1a3.78,3.78,0,0,0-1.11-.66,3.17,3.17,0,0,0-1.18-.22,2,2,0,0,0-1.19.3.93.93,0,0,0-.43.81.9.9,0,0,0,.27.69,1.92,1.92,0,0,0,.85.4l1.28.32a3.11,3.11,0,0,1,1.59.74,1.83,1.83,0,0,1,.51,1.33,1.85,1.85,0,0,1-.81,1.58A3.6,3.6,0,0,1,213.93,63.2Z" fill="#707071"/><path d="M221.68,63.2a3.15,3.15,0,0,1-1.74-.47,3.06,3.06,0,0,1-1.18-1.35,4.7,4.7,0,0,1-.42-2.06,4.64,4.64,0,0,1,.43-2.07A3.42,3.42,0,0,1,220,55.86a3.1,3.1,0,0,1,1.73-.5,3,3,0,0,1,1.74.5,2.5,2.5,0,0,1,1,1.43l-.18.11V55.55h1.35V63.1h-1.35V61.21l.18.07a2.47,2.47,0,0,1-1,1.42A2.93,2.93,0,0,1,221.68,63.2Zm.3-1.11a2,2,0,0,0,1.66-.72,4,4,0,0,0,0-4.16,2.22,2.22,0,0,0-3.31,0,3.27,3.27,0,0,0-.6,2.09,3.11,3.11,0,0,0,.6,2A2,2,0,0,0,222,62.09Z" fill="#707071"/><path d="M227.85,63.1v-11h1.36v11Z" fill="#707071"/><path d="M234.18,63.2a2.64,2.64,0,0,1-2.05-.75,3.31,3.31,0,0,1-.68-2.25V55.55h1.36v4.64a2.16,2.16,0,0,0,.4,1.43,1.52,1.52,0,0,0,1.22.46,2,2,0,0,0,1.55-.62,2.33,2.33,0,0,0,.58-1.66V55.55h1.38V63.1h-1.33V61.48l.18-.08a2.54,2.54,0,0,1-1,1.35A2.9,2.9,0,0,1,234.18,63.2Z" fill="#707071"/><path d="M247,63.1h-1.35v-2l.18.18a2.47,2.47,0,0,1-1,1.42,2.93,2.93,0,0,1-1.74.5,3.17,3.17,0,0,1-1.73-.48,3.33,3.33,0,0,1-1.18-1.38,5.25,5.25,0,0,1,0-4.14,3.12,3.12,0,0,1,2.92-1.84,2.93,2.93,0,0,1,1.74.51,2.51,2.51,0,0,1,1,1.41l-.2.18v-5.4H247Zm-3.59-1a2,2,0,0,0,1.65-.72,4,4,0,0,0,0-4.15,2,2,0,0,0-1.66-.74,2,2,0,0,0-1.66.73,3.15,3.15,0,0,0-.6,2,3.23,3.23,0,0,0,.6,2.09A2,2,0,0,0,243.4,62.09Z" fill="#707071"/><path d="M255.63,63.52l-3.41-8h1.43l2.65,6.5Zm-2.73,3-.29-1a6.19,6.19,0,0,0,1.17-.38,2.49,2.49,0,0,0,.78-.55,3.23,3.23,0,0,0,.56-.9l.49-1.12.32-.45,2.68-6.5H260l-3.53,8.19a5.35,5.35,0,0,1-.93,1.5,3.62,3.62,0,0,1-1.17.84A6.29,6.29,0,0,1,252.9,66.5Z" fill="#707071"/><path d="M271.44,62.21a3.39,3.39,0,0,1-1.28.73,4.82,4.82,0,0,1-1.59.26,4.21,4.21,0,0,1-2-.46,3.22,3.22,0,0,1-1.32-1.34,4.46,4.46,0,0,1-.46-2.1,4.33,4.33,0,0,1,.46-2,3.46,3.46,0,0,1,1.26-1.39,3.5,3.5,0,0,1,1.86-.5,3.25,3.25,0,0,1,1.75.45,3,3,0,0,1,1.11,1.28,4.68,4.68,0,0,1,.38,2v.24H266v-.84h4.84l-.42.54a3,3,0,0,0-.49-2,1.82,1.82,0,0,0-1.53-.68,2,2,0,0,0-1.64.75,3.19,3.19,0,0,0-.6,2.07,3.23,3.23,0,0,0,.63,2.17,2.31,2.31,0,0,0,1.86.73,3.56,3.56,0,0,0,1.26-.22,3.85,3.85,0,0,0,1.14-.65Z" fill="#707071"/><path d="M276,63.2a4.59,4.59,0,0,1-3.08-1l.44-1a4,4,0,0,0,1.25.68,4.38,4.38,0,0,0,1.43.22,2.23,2.23,0,0,0,1.24-.28.88.88,0,0,0,.43-.8.86.86,0,0,0-.29-.67,2.55,2.55,0,0,0-1-.41l-1.26-.3a2.81,2.81,0,0,1-1.49-.75,1.81,1.81,0,0,1-.52-1.31,1.92,1.92,0,0,1,.37-1.17,2.44,2.44,0,0,1,1-.8,3.91,3.91,0,0,1,1.56-.29,4.43,4.43,0,0,1,1.51.25,3.29,3.29,0,0,1,1.21.74l-.44,1a3.78,3.78,0,0,0-1.11-.66,3.17,3.17,0,0,0-1.18-.22,2.09,2.09,0,0,0-1.2.3,1,1,0,0,0-.42.81.9.9,0,0,0,.27.69,1.92,1.92,0,0,0,.85.4l1.28.32a3.11,3.11,0,0,1,1.59.74A1.83,1.83,0,0,1,279,61a1.85,1.85,0,0,1-.81,1.58A3.6,3.6,0,0,1,276,63.2Z" fill="#707071"/><path d="M279.72,56.6V55.55h4.95V56.6Zm4.92,5.31v1.14a4.37,4.37,0,0,1-.52.12,4.86,4.86,0,0,1-.56,0,2.39,2.39,0,0,1-1.75-.63,2.53,2.53,0,0,1-.64-1.86V53.63l1.37-.48v7.41a2,2,0,0,0,.17.91.93.93,0,0,0,.47.45,1.53,1.53,0,0,0,.66.13,2.38,2.38,0,0,0,.39,0A2.83,2.83,0,0,0,284.64,61.91Z" fill="#707071"/><path d="M292.35,62.21a3.39,3.39,0,0,1-1.28.73,4.82,4.82,0,0,1-1.59.26,4.21,4.21,0,0,1-2-.46,3.22,3.22,0,0,1-1.32-1.34,5,5,0,0,1,0-4.15,3.55,3.55,0,0,1,1.27-1.39,3.5,3.5,0,0,1,1.86-.5,3.28,3.28,0,0,1,1.75.45,2.84,2.84,0,0,1,1.11,1.28,4.84,4.84,0,0,1,.38,2v.24h-5.62v-.84h4.84l-.42.54a3,3,0,0,0-.49-2,1.82,1.82,0,0,0-1.53-.68,2,2,0,0,0-1.65.75,4,4,0,0,0,0,4.24,2.31,2.31,0,0,0,1.86.73,3.56,3.56,0,0,0,1.26-.22,3.85,3.85,0,0,0,1.14-.65Zm-2.64-7.63h-.95l1.5-3.08h1.53Z" fill="#707071"/><path d="M293.19,56.6V55.55h4.95V56.6Zm4.92,5.31v1.14a4.37,4.37,0,0,1-.52.12,5,5,0,0,1-.56,0,2.38,2.38,0,0,1-1.75-.63,2.49,2.49,0,0,1-.64-1.86V53.63l1.37-.48v7.41a1.89,1.89,0,0,0,.17.91.91.91,0,0,0,.46.45,1.6,1.6,0,0,0,.67.13,2.38,2.38,0,0,0,.39,0A2.83,2.83,0,0,0,298.11,61.91Z" fill="#707071"/><path d="M299.46,52.3h1.6v1.48h-1.6Zm.12,10.8V55.55h1.36V63.1Z" fill="#707071"/><path d="M306.45,63.2a3.8,3.8,0,0,1-2-.48,3.25,3.25,0,0,1-1.27-1.35,4.4,4.4,0,0,1-.45-2,4.57,4.57,0,0,1,.46-2.07,3.32,3.32,0,0,1,1.3-1.4,3.83,3.83,0,0,1,2-.49,4.46,4.46,0,0,1,1.5.26,3.24,3.24,0,0,1,1.18.73l-.43,1a4.71,4.71,0,0,0-1.08-.64,3,3,0,0,0-1.1-.22,2.2,2.2,0,0,0-1.74.74,3,3,0,0,0-.66,2.1,3,3,0,0,0,.65,2,2.26,2.26,0,0,0,1.77.72,3,3,0,0,0,1.08-.21,4.09,4.09,0,0,0,1.08-.64l.43,1a3.34,3.34,0,0,1-1.21.71A4.39,4.39,0,0,1,306.45,63.2Z" fill="#707071"/><path d="M313.57,63.2a3.21,3.21,0,0,1-1.75-.47,3.11,3.11,0,0,1-1.17-1.35,4.7,4.7,0,0,1-.42-2.06,4.78,4.78,0,0,1,.42-2.07,3.52,3.52,0,0,1,1.19-1.39,3.1,3.1,0,0,1,1.73-.5,3,3,0,0,1,1.74.5,2.5,2.5,0,0,1,1,1.43l-.18.11V55.55h1.35V63.1h-1.35V61.21l.18.07a2.47,2.47,0,0,1-1,1.42A2.93,2.93,0,0,1,313.57,63.2Zm.3-1.11a2,2,0,0,0,1.66-.72,3.32,3.32,0,0,0,.58-2.08,3.26,3.26,0,0,0-.59-2.08,2.22,2.22,0,0,0-3.31,0,3.27,3.27,0,0,0-.6,2.09,3.11,3.11,0,0,0,.6,2A2,2,0,0,0,313.87,62.09Z" fill="#707071"/><path d="M330.48,63.1h-1.35v-2l.18.18a2.47,2.47,0,0,1-1,1.42,2.93,2.93,0,0,1-1.74.5,3.15,3.15,0,0,1-1.73-.48,3.35,3.35,0,0,1-1.19-1.38,4.86,4.86,0,0,1-.42-2.08,4.7,4.7,0,0,1,.42-2.06,3.09,3.09,0,0,1,2.92-1.84,2.93,2.93,0,0,1,1.74.51,2.51,2.51,0,0,1,1,1.41l-.2.18v-5.4h1.37Zm-3.59-1a2,2,0,0,0,1.65-.72,3.26,3.26,0,0,0,.59-2.08,3.31,3.31,0,0,0-.58-2.07,2,2,0,0,0-1.66-.74,2,2,0,0,0-1.66.73,3.15,3.15,0,0,0-.6,2,3.23,3.23,0,0,0,.6,2.09A2,2,0,0,0,326.89,62.09Z" fill="#707071"/><path d="M339,62.21a3.39,3.39,0,0,1-1.28.73,4.82,4.82,0,0,1-1.59.26,4.21,4.21,0,0,1-2-.46,3.22,3.22,0,0,1-1.32-1.34,5,5,0,0,1,0-4.15A3.55,3.55,0,0,1,334,55.86a3.5,3.5,0,0,1,1.86-.5,3.28,3.28,0,0,1,1.75.45,3,3,0,0,1,1.11,1.28,4.84,4.84,0,0,1,.38,2v.24h-5.62v-.84h4.84l-.42.54a3,3,0,0,0-.49-2,1.82,1.82,0,0,0-1.53-.68,2,2,0,0,0-1.65.75,4,4,0,0,0,0,4.24,2.31,2.31,0,0,0,1.86.73,3.56,3.56,0,0,0,1.26-.22,3.85,3.85,0,0,0,1.14-.65Z" fill="#707071"/><path d="M340.93,63.1V57.67c0-.35,0-.7,0-1.06s-.05-.71-.1-1.06h1.29l.14,1.55-.15.09a2.72,2.72,0,0,1,1.05-1.36,3.08,3.08,0,0,1,1.68-.47c1.81,0,2.71,1,2.71,3V63.1h-1.36V58.45a2.31,2.31,0,0,0-.4-1.49,1.57,1.57,0,0,0-1.27-.48,2.1,2.1,0,0,0-1.6.63,2.29,2.29,0,0,0-.6,1.67V63.1Z" fill="#707071"/><path d="M348.73,56.6V55.55h4.95V56.6Zm4.92,5.31v1.14a4.37,4.37,0,0,1-.52.12,4.86,4.86,0,0,1-.56,0,2.39,2.39,0,0,1-1.75-.63,2.52,2.52,0,0,1-.63-1.86V53.63l1.36-.48v7.41a2,2,0,0,0,.17.91.93.93,0,0,0,.47.45,1.57,1.57,0,0,0,.67.13,2.38,2.38,0,0,0,.39,0A2.73,2.73,0,0,0,353.65,61.91Z" fill="#707071"/><path d="M358,63.2a3.19,3.19,0,0,1-1.75-.47,3.06,3.06,0,0,1-1.18-1.35,4.7,4.7,0,0,1-.42-2.06,4.64,4.64,0,0,1,.43-2.07,3.42,3.42,0,0,1,1.18-1.39,3.14,3.14,0,0,1,1.74-.5,3,3,0,0,1,1.74.5,2.48,2.48,0,0,1,1,1.43l-.18.11V55.55h1.35V63.1h-1.35V61.21l.18.07a2.46,2.46,0,0,1-1,1.42A2.93,2.93,0,0,1,358,63.2Zm.3-1.11a2,2,0,0,0,1.65-.72,4,4,0,0,0,0-4.16,2.23,2.23,0,0,0-3.32,0,3.27,3.27,0,0,0-.6,2.09,3.11,3.11,0,0,0,.6,2A2.06,2.06,0,0,0,358.32,62.09Z" fill="#707071"/><path d="M364.18,63.1v-11h1.37v11Z" fill="#707071"/></g><path d="M77.12,11.82C72.17,3.27,62.45-.63,51.77,1.64A17.91,17.91,0,0,0,41.21,7.92C39,4.62,35,2.15,30,.91A30,30,0,0,0,16.64.79,21.57,21.57,0,0,0,5.11,7.12C1.71,10.89-1.44,17.74,2.89,29a118.49,118.49,0,0,1,4.37,15.8c2.61,11.48,5.08,22.32,13.43,25.42a12.86,12.86,0,0,0,4.47.73c4.41,0,10-1.76,16.6-5.25,4.89,3.14,9.09,4.7,12.66,4.7a10.61,10.61,0,0,0,3.9-.71c3.79-1.49,10.93-6.5,16.11-23.31a80.76,80.76,0,0,0,2.35-9.68C81.2,28.43,81.46,19.31,77.12,11.82ZM22.18,66.26C16,64,13.75,54.19,11.39,43.83A119.11,119.11,0,0,0,6.85,27.47C4,20.14,4.51,14.06,8.28,9.89,11.52,6.29,17.1,4.24,23,4.24a24.93,24.93,0,0,1,6,.72c5.41,1.31,9,4.23,10,8a2.13,2.13,0,0,0,4.06.16c.08-.23,2.1-5.78,9.69-7.4,8.93-1.9,16.7,1.15,20.77,8.17,3.62,6.24,4.44,17.14-5.13,27.31-5.62,6-35,29.2-46.13,25.07ZM43.9,64.48l-.2.11Zm12.84,1.28c-2.57,1-6.24.12-10.77-2.48,1.39-.82,2.8-1.7,4.27-2.65A161.24,161.24,0,0,0,70.41,45h0c-3,9.76-7.81,18.43-13.67,20.73ZM71,44.47l0,0Zm3.31-3.9.12-.16-.11.16Zm1.36-2v0Zm-.65,1,.06-.08Z" fill="#24bfce"/><path d="M50.24,60.63Q48.05,62.05,46,63.28c4.53,2.6,8.2,3.49,10.77,2.48,5.87-2.3,10.68-11,13.67-20.73A161.24,161.24,0,0,1,50.24,60.63Z" fill="#d8eff0"/><path d="M41.44,45.13a21.59,21.59,0,0,1-6.06-.23,24.28,24.28,0,0,1-13.86-7.28A39.84,39.84,0,0,1,19,34.4a.92.92,0,0,1,0-1.28c.3-.33.65-.28,1.07.12a16.86,16.86,0,0,0,5,3.13,24.55,24.55,0,0,0,6,1.73c1.73.27,3.48.4,5.23.51a34.13,34.13,0,0,0,6.85-.31A39.15,39.15,0,0,0,49.28,37a25.92,25.92,0,0,0,8.93-4.49c.89-.73,1.68-1.64,2.52-2.46a4,4,0,0,1,.4-.42.55.55,0,0,1,.77,0l.06.07a.85.85,0,0,1,.19,1c-.28.65-.58,1.29-.91,1.9a23.79,23.79,0,0,1-8.38,8.87,25.1,25.1,0,0,1-11.42,3.73Z" fill="#24bfce"/><path d="M61.27,28.31a1.77,1.77,0,0,1-.46,0,.92.92,0,0,1-.6-.83.87.87,0,0,1,.58-.86,2.66,2.66,0,0,1,2.3.45,4,4,0,0,1,1.66,3.51c0,.55-.31.88-.71.85s-.67-.34-.71-.91A2.16,2.16,0,0,0,62,28.36a3.88,3.88,0,0,0-.75-.11Z" fill="#24bfce"/><path d="M18.9,31.78a1.9,1.9,0,0,0-1.66,2.1l0,.18c0,.13,0,.25,0,.38a.79.79,0,0,1-.54.87A.69.69,0,0,1,16,34.8a.11.11,0,0,1,0,0,4,4,0,0,1,.35-3A3,3,0,0,1,18.75,30c.65-.05,1.07.26,1.12.81a.84.84,0,0,1-.73.94Z" fill="#24bfce"/></svg>